<svg xmlns="http://www.w3.org/2000/svg" viewBox="0 0 1600 1000" role="img" aria-labelledby="t d">
<title id="t">AI study assistant interface placeholder</title><desc id="d">Neutral technical placeholder. Replace with authentic project evidence before publication.</desc>
<defs><pattern id="grid" width="64" height="64" patternUnits="userSpaceOnUse"><path d="M64 0H0V64" fill="none" stroke="#23354f" stroke-width="1"/></pattern><radialGradient id="glow"><stop stop-color="#a78bfa" stop-opacity=".13"/><stop offset="1" stop-color="#a78bfa" stop-opacity="0"/></radialGradient></defs>
<rect width="1600" height="1000" fill="#08101d"/><rect width="1600" height="1000" fill="url(#grid)" opacity=".55"/><circle cx="1180" cy="240" r="460" fill="url(#glow)"/>
<g fill="none" stroke="#a78bfa" stroke-width="3" stroke-linecap="round" stroke-linejoin="round"><rect x="260" y="180" width="1080" height="650" rx="28"/><path d="M260 285h1080M610 285v545"/><rect x="315" y="350" width="235" height="38" rx="9"/><rect x="315" y="420" width="235" height="38" rx="9"/><rect x="315" y="490" width="235" height="38" rx="9"/><rect x="680" y="355" width="560" height="180" rx="18"/><rect x="680" y="580" width="420" height="36" rx="8"/><rect x="680" y="640" width="490" height="36" rx="8"/><path d="M1180 720h60"/></g>
<g font-family="ui-monospace, SFMono-Regular, Menlo, monospace"><text x="72" y="92" fill="#a78bfa" font-size="26" letter-spacing="4">TECHNICAL PLACEHOLDER</text><text x="72" y="132" fill="#88a0c0" font-size="20">REPLACE WITH AUTHENTIC PROJECT ASSET BEFORE RELEASE</text><text x="72" y="930" fill="#657d9d" font-size="18">IZHAAN MUBEEN / LOCAL DEVELOPMENT BUILD</text></g>
</svg>
