<svg xmlns="http://www.w3.org/2000/svg" viewBox="0 0 1600 1000" role="img" aria-labelledby="t d">
<title id="t">VISTA mobile service robot CAD placeholder</title><desc id="d">Neutral technical placeholder. Replace with authentic project evidence before publication.</desc>
<defs><pattern id="grid" width="64" height="64" patternUnits="userSpaceOnUse"><path d="M64 0H0V64" fill="none" stroke="#23354f" stroke-width="1"/></pattern><radialGradient id="glow"><stop stop-color="#59b8ff" stop-opacity=".13"/><stop offset="1" stop-color="#59b8ff" stop-opacity="0"/></radialGradient></defs>
<rect width="1600" height="1000" fill="#08101d"/><rect width="1600" height="1000" fill="url(#grid)" opacity=".55"/><circle cx="1180" cy="240" r="460" fill="url(#glow)"/>
<g fill="none" stroke="#59b8ff" stroke-width="3" stroke-linecap="round" stroke-linejoin="round"><path d="M810 190h190l42 86v125h-274V276z"/><rect x="795" y="400" width="220" height="220" rx="26"/><path d="M760 455H610l-84 70v185M1050 455h150l84 70v185M835 620l-48 182h236l-48-182"/><rect x="744" y="800" width="330" height="70" rx="32"/><circle cx="805" cy="870" r="48"/><circle cx="1010" cy="870" r="48"/><path d="M905 190v-70M860 120h90M618 525h-98M1290 525h-98" stroke-dasharray="12 14"/></g>
<g font-family="ui-monospace, SFMono-Regular, Menlo, monospace"><text x="72" y="92" fill="#59b8ff" font-size="26" letter-spacing="4">TECHNICAL PLACEHOLDER</text><text x="72" y="132" fill="#88a0c0" font-size="20">REPLACE WITH AUTHENTIC PROJECT ASSET BEFORE RELEASE</text><text x="72" y="930" fill="#657d9d" font-size="18">IZHAAN MUBEEN / LOCAL DEVELOPMENT BUILD</text></g>
</svg>
